<svg width="64" height="64" viewBox="0 0 64 64" fill="none" xmlns="http://www.w3.org/2000/svg">
<rect width="64" height="64" rx="15" fill="#2563EB"/>
<mask id="mask0_255_57" style="mask-type:alpha" maskUnits="userSpaceOnUse" x="0" y="2" width="63" height="62">
<rect y="2" width="63" height="62" fill="#D9D9D9"/>
</mask>
<g mask="url(#mask0_255_57)">
<path d="M70 46C64.0444 46 73.1333 38.6545 69 34.5211C64.8667 30.3878 76.5 36.9555 76.5 31C76.5 25.0889 64.3667 27.4889 68.5 23.3333C72.6333 19.1778 69.0444 16 75 16C80.9111 16 62.8444 17.3444 67 21.5C71.1556 25.6556 68.1 25.8631 69 31.3333C69 37.2889 75.6556 36.817 71.5 40.9503C67.3444 45.0837 75.9111 46 70 46ZM70.5 41C74.9444 41 91.6667 41.617 71.5 40.9503C74.6111 37.8392 69 35.7778 69 31.3333C69 26.8889 70.1111 24.6111 67 21.5C63.8889 18.3889 85.4444 23.3333 81 23.3333C76.5556 23.3333 74.6111 21.8889 71.5 25C68.3889 28.1111 76.5 26.5555 76.5 31C76.5 35.4444 68.8889 35.3889 72 38.5C75.1111 41.6111 100.5 39.5 70.5 41ZM72 40.4157L69.7214 39.5L70 31L70.5 25L72 28.5L73 33L72 40.4157ZM-31 27L-27.5 25L-25.5 27L-18 29.5L-31 27ZM-31 39.5L-27.5 33L-21.5 33.5L-22 36.5L-31 39.5ZM4.33334 47.3333V42H15V47.3333H4.33334Z" fill="#22C55E"/>
</g>
<mask id="mask1_255_57" style="mask-type:alpha" maskUnits="userSpaceOnUse" x="0" y="2" width="63" height="62">
<rect y="2" width="63" height="62" fill="#D9D9D9"/>
</mask>
<g mask="url(#mask1_255_57)">
<path d="M70 46C64.0444 46 73.1333 38.6545 69 34.5211C64.8667 30.3878 76.5 36.9555 76.5 31C76.5 25.0889 64.3667 27.4889 68.5 23.3333C72.6333 19.1778 69.0444 16 75 16C80.9111 16 62.8444 17.3444 67 21.5C71.1556 25.6556 68.1 25.8631 69 31.3333C69 37.2889 75.6556 36.817 71.5 40.9503C67.3444 45.0837 75.9111 46 70 46ZM70.5 41C74.9444 41 91.6667 41.617 71.5 40.9503C74.6111 37.8392 69 35.7778 69 31.3333C69 26.8889 70.1111 24.6111 67 21.5C63.8889 18.3889 85.4444 23.3333 81 23.3333C76.5556 23.3333 74.6111 21.8889 71.5 25C68.3889 28.1111 76.5 26.5555 76.5 31C76.5 35.4444 68.8889 35.3889 72 38.5C75.1111 41.6111 100.5 39.5 70.5 41ZM87 46.5L88.5 43L81.5 31L89 27L88.5 28.5L83.5 34.5211L87 46.5ZM-23 28L-36.5 19.5L-12 21.5L-15.5 26L-23 28ZM1.66667 36.6667V31.3333H15V36.6667H1.66667ZM-34.5 48.5L-26 43.5L-21 42L-38.5 50L-34.5 48.5Z" fill="#EAB308"/>
</g>
<mask id="mask2_255_57" style="mask-type:alpha" maskUnits="userSpaceOnUse" x="0" y="3" width="63" height="61">
<rect y="3" width="63" height="61" fill="#D9D9D9"/>
</mask>
<g mask="url(#mask2_255_57)">
<path d="M70 47C64.0444 47 73.1333 39.6545 69 35.5211C64.8667 31.3878 76.5 37.9555 76.5 32C76.5 26.0889 64.3667 28.4889 68.5 24.3333C72.6333 20.1778 69.0444 17 75 17C80.9111 17 62.8444 18.3444 67 22.5C71.1556 26.6556 68.1 26.8631 69 32.3333C69 38.2889 75.6556 37.817 71.5 41.9503C67.3444 46.0837 75.9111 47 70 47ZM70.5 42C74.9444 42 91.6667 42.617 71.5 41.9503C74.6111 38.8392 69 36.7778 69 32.3333C69 27.8889 70.1111 25.6111 67 22.5C63.8889 19.3889 85.4444 24.3333 81 24.3333C76.5556 24.3333 74.6111 22.8889 71.5 26C68.3889 29.1111 76.5 27.5555 76.5 32C76.5 36.4444 68.8889 36.3889 72 39.5C75.1111 42.6111 100.5 40.5 70.5 42ZM123 40.5L122 39.5L92.5 26L119 21.6667L103 20.5L115.5 29L123 40.5ZM4.33334 27V21.6667H15V27H4.33334ZM-38 38.5L-39 32.3333L-21.5 34L-30.5 37.6667L-38 38.5ZM-30.5 51L-51 48.3333L-24.5 47L-38 48.3333L-30.5 51Z" fill="#EF4444"/>
</g>
<mask id="mask3_255_57" style="mask-type:alpha" maskUnits="userSpaceOnUse" x="0" y="3" width="63" height="61">
<rect y="3" width="63" height="61" fill="#D9D9D9"/>
</mask>
<g mask="url(#mask3_255_57)">
<path d="M70 47C64.0444 47 73.1333 39.6545 69 35.5211C64.8667 31.3878 76.5 37.9555 76.5 32C76.5 26.0889 64.3667 28.4889 68.5 24.3333C72.6333 20.1778 69.0444 17 75 17C80.9111 17 62.8445 18.3444 67 22.5C71.1555 26.6556 68.1 26.8631 69 32.3333C69 38.2889 75.6555 37.817 71.5 41.9503C67.3445 46.0837 75.9111 47 70 47ZM70.5 42C74.9444 42 91.6667 42.617 71.5 41.9503C74.6111 38.8392 69 36.7778 69 32.3333C69 27.8889 70.1111 25.6111 67 22.5C63.8889 19.3889 85.4444 24.3333 81 24.3333C76.5556 24.3333 74.6111 22.8889 71.5 26C68.3889 29.1111 76.5 27.5555 76.5 32C76.5 36.4444 68.8889 36.3889 72 39.5C75.1111 42.6111 100.5 40.5 70.5 42ZM45.0667 44.9333L48.8667 41.1333L41.6667 33.9333V24.3333H36.3333V36.1333L45.0667 44.9333ZM-38.5 27L-50.5 21.6667L-35.5 26L-30 27H-38.5ZM-66 38.5L-72 32L-41.5 35.5211L-44.5 41.1333L-66 38.5ZM-55 50.5L-58 44L-102 44.9333L-55 50.5Z" fill="white"/>
</g>
<mask id="mask4_255_57" style="mask-type:alpha" maskUnits="userSpaceOnUse" x="9" y="3" width="55" height="60">
<rect x="9" y="3" width="55" height="60" fill="#D9D9D9"/>
</mask>
<g mask="url(#mask4_255_57)">
<path d="M31.5 10.5V5.5H46.5V10.5H31.5ZM79 34.5L75.5 35.5L76 24.5H77.5L79 34.5ZM39 58C35.9167 58 33.0104 57.4062 30.2813 56.2188C27.5521 55.0312 25.1667 53.4167 23.125 51.375C21.0833 49.3333 19.4688 46.9479 18.2813 44.2188C17.0938 41.4896 16.5 38.5833 16.5 35.5C16.5 32.4167 17.0938 29.5104 18.2813 26.7812C19.4688 24.0521 21.0833 21.6667 23.125 19.625C25.1667 17.5833 27.5521 15.9688 30.2813 14.7812C33.0104 13.5938 35.9167 13 39 13C41.5833 13 44.0625 13.4167 46.4375 14.25C48.8125 15.0833 51.0417 16.2917 53.125 17.875L56.625 14.375L60.125 17.875L56.625 21.375C58.2083 23.4583 59.4167 25.6875 60.25 28.0625C61.0833 30.4375 61.5 32.9167 61.5 35.5C61.5 38.5833 60.9062 41.4896 59.7188 44.2188C58.5312 46.9479 56.9167 49.3333 54.875 51.375C52.8333 53.4167 50.4479 55.0312 47.7188 56.2188C44.9896 57.4062 42.0833 58 39 58ZM39 53C43.8333 53 47.9583 51.2917 51.375 47.875C54.7917 44.4583 56.5 40.3333 56.5 35.5C56.5 30.6667 54.7917 26.5417 51.375 23.125C47.9583 19.7083 43.8333 18 39 18C34.1667 18 30.0417 19.7083 26.625 23.125C23.2083 26.5417 21.5 30.6667 21.5 35.5C21.5 40.3333 23.2083 44.4583 26.625 47.875C30.0417 51.2917 34.1667 53 39 53Z" fill="white"/>
</g>
</svg>
